<?xml version="1.0" standalone="no"?>
<!DOCTYPE svg PUBLIC "-//W3C//DTD SVG 20010904//EN"
 "http://www.w3.org/TR/2001/REC-SVG-20010904/DTD/svg10.dtd">
<svg version="1.0" xmlns="http://www.w3.org/2000/svg"
 width="640.000000pt" height="640.000000pt" viewBox="0 0 640.000000 640.000000"
 preserveAspectRatio="xMidYMid meet">

<g transform="translate(0.000000,640.000000) scale(0.100000,-0.100000)"
fill="#ffffff" stroke="none">
<path d="M0 3200 l0 -3200 3200 0 3200 0 0 3200 0 3200 -3200 0 -3200 0 0
-3200z m1317 2072 l48 -18 3 -97 c3 -105 0 -111 -47 -78 -45 32 -115 46 -162
32 -75 -23 -104 -119 -55 -178 47 -56 141 -61 224 -12 18 10 35 19 38 19 2 0
4 -42 4 -94 l0 -94 -37 -15 c-78 -31 -150 -39 -223 -27 -133 22 -225 106 -250
226 -14 68 -7 123 24 189 42 89 113 145 209 165 58 12 166 4 224 -18z m336
-28 c17 -26 37 -53 43 -61 8 -12 17 -3 48 46 l37 61 115 0 c89 0 114 -3 108
-12 -4 -7 -52 -79 -106 -160 l-98 -148 0 -130 0 -130 -115 0 -115 0 0 128 0
128 -101 149 c-56 82 -103 154 -106 162 -4 10 21 13 126 13 l131 0 33 -46z
m797 21 c74 -43 98 -143 50 -208 l-21 -28 24 -19 c58 -46 75 -150 35 -210 -54
-79 -92 -89 -335 -90 l-183 0 0 291 0 291 198 -4 c176 -3 201 -5 232 -23z
m575 -55 l0 -75 -102 -3 c-102 -3 -103 -3 -103 -27 0 -25 1 -25 95 -25 l95 0
1 -27 c1 -16 2 -47 3 -71 1 -24 -3 -47 -9 -50 -5 -4 -48 -7 -95 -8 -84 0 -85
0 -88 -27 l-3 -26 103 -3 103 -3 3 -78 3 -77 -217 2 -216 3 1 275 c0 151 1
281 1 288 0 10 46 12 213 10 l212 -3 0 -75z m431 65 c80 -24 124 -81 124 -163
0 -45 -20 -89 -51 -112 -4 -3 24 -68 62 -144 38 -77 70 -135 70 -130 1 5 0
125 -1 266 -1 142 1 266 5 278 6 18 15 20 115 20 l109 0 3 -97 3 -98 60 -3
c106 -6 105 -6 105 103 l0 95 110 0 110 0 0 -290 0 -290 -110 0 -109 0 -3 103
-3 102 -80 0 -80 0 -3 -102 -3 -103 -230 0 c-209 0 -230 2 -236 18 -34 98
-101 212 -124 212 -5 0 -10 -51 -11 -112 l-3 -113 -112 -3 -113 -3 0 291 0
290 173 0 c124 0 188 -4 223 -15z m1104 -149 c0 -189 7 -220 54 -236 36 -11
77 -2 93 22 4 7 10 94 13 193 l5 180 113 3 112 3 0 -179 c0 -217 -10 -263 -74
-326 -106 -104 -338 -109 -453 -11 -71 60 -82 103 -83 316 0 101 -1 187 0 192
0 4 50 7 110 7 l110 0 0 -164z m860 142 c56 -29 90 -78 90 -130 0 -39 -26 -98
-43 -98 -5 0 9 -20 31 -45 22 -25 43 -61 46 -80 13 -69 -25 -148 -87 -183 -28
-15 -62 -17 -242 -17 l-210 0 -3 275 c-1 151 0 280 3 287 3 10 49 13 188 13
170 0 186 -2 227 -22z m-4095 -833 l40 -20 3 -97 c2 -89 -5 -118 -22 -89 -14
21 -99 51 -147 51 -45 0 -55 -4 -85 -34 -26 -26 -34 -42 -34 -70 0 -112 117
-159 239 -97 22 12 43 21 46 21 3 0 5 -41 5 -90 l0 -91 -47 -21 c-38 -17 -68
-22 -148 -22 -120 -1 -182 21 -244 89 -57 62 -74 106 -75 195 -1 63 4 84 27
132 33 67 90 120 161 148 68 27 221 24 281 -5z m335 -34 c22 -34 43 -61 45
-61 2 0 20 25 40 55 19 30 38 55 42 56 21 3 223 4 223 1 0 -2 -47 -74 -105
-161 l-105 -158 0 -126 c0 -108 -2 -126 -16 -129 -9 -2 -61 -2 -115 0 l-99 3
0 127 0 127 -105 150 c-57 83 -104 155 -105 160 0 7 49 12 129 13 l130 3 41
-60z m714 49 c61 -10 116 -43 138 -83 20 -37 15 -110 -10 -142 l-23 -28 30
-31 c51 -53 65 -121 37 -187 -36 -86 -79 -99 -326 -99 l-200 0 0 283 c0 156 2
286 5 289 10 9 289 8 349 -2z m644 -4 c5 -6 9 -41 10 -78 l1 -67 -102 -3 c-97
-3 -102 -4 -105 -25 -3 -22 -1 -23 92 -23 57 0 96 -4 97 -10 1 -5 1 -19 1 -30
0 -11 0 -42 -1 -70 l-1 -50 -95 0 -95 0 0 -30 0 -30 105 0 105 0 0 -75 c0 -65
-2 -75 -17 -75 -223 -2 -406 -1 -410 3 -6 7 -4 558 3 568 8 14 402 9 412 -5z
m390 3 c112 -17 172 -76 172 -169 0 -44 -11 -72 -42 -106 -20 -22 -19 -22 6
-60 13 -22 44 -81 67 -131 23 -51 45 -93 48 -93 3 0 6 127 6 282 l0 283 110 0
110 0 3 -98 3 -98 82 3 82 3 3 96 3 97 97 1 c53 1 103 -3 110 -7 9 -7 12 -72
10 -292 l-3 -283 -100 1 c-55 0 -103 1 -107 1 -5 1 -8 46 -8 101 l0 100 -85 0
-85 0 0 -100 0 -100 -77 -1 c-184 -2 -376 1 -381 6 -3 3 -20 39 -38 80 -38 87
-70 135 -90 135 -11 0 -14 -21 -14 -110 0 -119 4 -112 -60 -112 -16 0 -61 1
-100 1 l-70 1 0 283 c0 156 2 286 5 289 10 9 276 7 343 -3z m1150 1 c1 0 2
-71 2 -159 0 -206 13 -241 87 -241 65 1 73 26 73 229 l0 170 33 6 c26 4 123 2
185 -4 9 -1 12 -44 12 -181 0 -216 -13 -264 -86 -329 -123 -108 -390 -90 -473
34 -46 67 -51 95 -51 298 l0 189 108 -5 c59 -4 108 -6 110 -7z m863 -17 c64
-29 93 -77 87 -144 -3 -32 -13 -58 -27 -73 l-22 -23 27 -17 c14 -10 35 -38 46
-63 27 -61 18 -121 -25 -170 -52 -59 -72 -63 -302 -63 l-205 0 0 283 c0 156 3
286 6 290 4 3 88 5 188 4 159 -3 187 -5 227 -24z m-4111 -848 l35 -12 3 -81
c2 -45 0 -82 -3 -82 -3 0 -22 8 -43 19 -120 60 -232 12 -232 -97 1 -56 16 -86
56 -113 39 -25 131 -26 184 0 21 10 41 16 44 13 4 -3 6 -36 6 -74 l0 -68 -36
-15 c-175 -73 -362 -16 -430 130 -59 125 -9 290 109 359 74 44 213 53 307 21z
m342 -50 c23 -36 44 -65 48 -65 3 0 23 29 45 65 l40 65 98 0 c76 0 96 -3 91
-12 -5 -7 -50 -76 -101 -152 l-93 -140 0 -123 0 -123 -100 0 -100 0 0 123 0
123 -100 147 c-55 80 -100 148 -100 151 0 3 52 6 115 6 l116 0 41 -65z m750
53 c47 -14 94 -59 101 -98 8 -39 -10 -97 -37 -117 l-23 -17 44 -41 c35 -32 46
-49 50 -82 7 -56 -1 -86 -38 -127 -40 -47 -90 -56 -299 -56 l-170 0 0 275 0
275 166 0 c99 0 183 -5 206 -12z m608 -53 l0 -65 -100 0 -100 0 0 -40 0 -40
95 0 96 0 -3 -62 -3 -63 -92 -3 -93 -3 0 -39 0 -40 100 0 100 0 2 -27 c2 -29
1 -69 -1 -90 -1 -10 -48 -13 -201 -13 l-200 0 0 275 0 275 200 0 200 0 0 -65z
m465 40 c22 -11 50 -35 62 -54 42 -62 24 -161 -33 -192 l-24 -12 25 -24 c19
-19 125 -222 125 -239 0 -2 -43 -4 -95 -4 l-95 0 -49 103 c-47 98 -72 127
-111 127 -6 0 -10 -49 -10 -115 l0 -115 -100 0 -100 0 0 276 0 276 183 -4
c158 -3 187 -6 222 -23z m396 -12 c0 -21 1 -65 2 -98 l2 -60 95 0 95 0 3 98 3
97 94 0 95 0 0 -275 0 -275 -95 0 -94 0 -3 103 -3 102 -83 3 c-53 2 -89 -1
-98 -9 -10 -8 -14 -37 -14 -105 l0 -94 -95 0 -95 0 0 275 0 275 95 0 95 0 1
-37z m671 -133 c4 -151 7 -173 25 -197 36 -49 110 -49 147 0 18 25 21 45 24
197 l4 170 95 0 95 0 -4 -192 c-3 -177 -5 -196 -25 -235 -46 -84 -131 -125
-263 -125 -131 -1 -207 35 -257 120 -28 46 -28 50 -31 240 l-4 192 95 0 94 0
5 -170z m850 158 c56 -16 98 -68 98 -119 0 -46 -21 -94 -46 -103 -14 -5 -10
-13 24 -41 88 -76 77 -199 -21 -253 -26 -14 -66 -17 -229 -20 l-196 -4 -4 29
c-2 15 -2 139 0 276 l3 247 166 0 c98 0 182 -5 205 -12z m-4065 -822 l42 -18
0 -100 c0 -54 -3 -98 -7 -96 -97 51 -126 60 -175 55 -64 -6 -107 -47 -107
-103 0 -109 107 -155 228 -99 30 14 56 25 58 25 2 0 4 -40 4 -90 0 -88 -1 -90
-27 -103 -126 -63 -310 -42 -401 46 -59 56 -86 121 -86 207 1 145 85 256 219
291 51 13 206 4 252 -15z m297 12 c16 -25 79 -108 82 -108 2 0 19 25 39 55 19
30 38 55 42 55 39 3 215 2 217 -1 2 -2 -43 -74 -100 -159 l-103 -155 -3 -130
-3 -130 -110 0 -110 0 -3 129 -3 128 -106 155 c-62 91 -101 158 -95 162 9 6
253 5 256 -1z m617 3 c165 -1 178 -2 209 -23 54 -37 75 -73 74 -127 0 -34 -7
-57 -22 -76 l-23 -28 30 -31 c16 -17 34 -41 40 -53 25 -49 6 -148 -36 -185
-46 -42 -92 -51 -279 -55 -99 -2 -188 -1 -197 3 -15 6 -17 33 -17 288 0 156 3
285 6 288 3 3 13 5 22 3 9 -2 96 -4 193 -4z m784 -73 l0 -73 -102 -3 c-102 -3
-103 -3 -103 -27 0 -25 1 -25 95 -25 83 0 95 -2 96 -17 0 -10 2 -29 4 -43 2
-14 1 -42 -2 -62 l-6 -38 -93 0 -94 0 0 -30 0 -30 105 0 105 0 0 -74 c0 -58
-3 -75 -16 -80 -9 -3 -105 -6 -215 -6 l-198 0 -3 283 c-2 155 0 287 4 292 4 6
84 9 215 8 l208 -2 0 -73z m468 48 c48 -24 78 -67 85 -121 6 -56 -2 -86 -33
-123 l-26 -30 28 -44 c16 -25 46 -83 67 -131 21 -48 42 -87 45 -87 3 0 5 123
3 274 -3 198 0 276 8 281 9 6 128 9 203 6 15 -1 17 -12 17 -96 l0 -95 86 0 85
0 -3 95 -3 95 28 1 c15 0 64 1 110 2 l82 1 3 -292 2 -292 -110 0 -110 0 0 105
0 105 -85 0 -84 0 -3 -102 -3 -103 -222 -2 c-163 -2 -224 1 -230 10 -5 7 -24
46 -42 87 -39 87 -67 130 -86 130 -11 0 -15 -24 -17 -112 l-3 -113 -110 0
-110 0 -3 287 -2 287 22 3 c13 2 102 1 198 -2 144 -4 182 -8 213 -24z m1055
24 c9 0 12 -39 12 -159 0 -208 12 -241 89 -241 20 0 36 8 50 26 19 25 21 40
21 200 0 159 2 174 18 175 9 0 60 0 112 0 l95 0 0 -198 c0 -184 -2 -201 -22
-238 -56 -104 -157 -151 -305 -143 -95 5 -154 28 -207 80 -62 60 -70 95 -71
300 -1 101 -1 188 -1 193 1 8 62 10 209 5z m883 -20 c76 -39 106 -148 55 -206
l-23 -28 32 -31 c84 -78 61 -216 -43 -267 -44 -21 -60 -22 -247 -23 l-200 0
-3 284 c-1 165 2 287 7 290 5 3 93 5 197 3 160 -3 193 -6 225 -22z m-4176
-811 c33 -6 72 -17 87 -25 28 -14 28 -16 28 -109 0 -52 -3 -95 -7 -95 -5 0
-35 14 -68 31 -49 25 -68 30 -103 25 -59 -8 -81 -22 -98 -61 -21 -51 -17 -89
11 -123 45 -54 141 -60 220 -14 20 12 38 22 41 22 2 0 4 -42 4 -94 l0 -94 -61
-22 c-69 -26 -177 -31 -245 -12 -211 60 -281 327 -127 486 79 81 186 110 318
85z m405 -56 c20 -29 39 -55 42 -58 3 -4 22 21 43 54 l36 61 115 0 c109 0 114
-1 105 -19 -6 -10 -53 -82 -106 -159 l-95 -141 0 -130 0 -131 -115 0 -115 0 0
128 0 128 -105 154 c-58 85 -105 159 -105 163 0 4 59 6 132 5 l132 -3 36 -52z
m794 28 c73 -45 94 -143 44 -206 l-20 -26 25 -19 c52 -42 73 -139 42 -199 -20
-39 -69 -78 -113 -91 -20 -5 -121 -10 -224 -10 l-188 0 0 291 0 291 198 -4
c188 -3 199 -4 236 -27z m571 -51 l0 -75 -102 -3 c-102 -3 -103 -3 -103 -27 0
-25 1 -25 94 -25 l93 0 6 -42 c3 -24 2 -59 -2 -78 l-7 -35 -89 0 -90 0 -3 -27
-3 -27 103 -3 103 -3 3 -78 3 -77 -218 2 -218 3 1 25 c1 14 2 143 3 288 l1
262 213 -2 212 -3 0 -75z m431 65 c76 -22 124 -82 124 -154 0 -49 -15 -89 -41
-112 l-21 -18 31 -51 c17 -28 31 -52 31 -54 0 -14 73 -156 78 -152 3 3 6 129
6 278 l1 273 112 3 112 3 3 -98 3 -98 80 0 80 0 1 95 2 95 111 3 111 3 0 -291
0 -290 -110 0 -110 0 -1 33 c0 17 -1 64 -2 102 l-2 70 -80 0 -80 0 -3 -102 -3
-102 -228 0 -228 0 -39 86 c-37 84 -76 143 -95 143 -5 0 -9 -52 -9 -115 l0
-115 -115 0 -115 0 0 290 0 290 173 0 c124 0 188 -4 223 -15z m1104 -149 c0
-189 7 -220 54 -236 36 -11 77 -2 93 22 4 7 10 94 13 193 l5 180 113 3 112 3
0 -179 c0 -216 -11 -263 -73 -325 -56 -56 -128 -81 -232 -81 -141 0 -235 50
-281 148 -22 48 -24 62 -24 244 l0 192 110 0 110 0 0 -164z m841 153 c65 -22
109 -80 109 -144 0 -38 -22 -91 -40 -97 -6 -2 6 -22 28 -45 24 -25 42 -55 46
-77 16 -83 -41 -174 -122 -195 -25 -7 -113 -10 -229 -9 l-188 3 -3 275 c-1
151 0 280 3 287 6 17 346 18 396 2z"/>
<path d="M1055 5244 c-101 -35 -165 -131 -165 -243 0 -122 67 -215 179 -247
65 -19 179 -15 234 9 36 15 37 18 37 66 0 28 -3 51 -7 51 -5 0 -28 -7 -53 -16
-50 -18 -113 -13 -159 11 -88 45 -96 188 -14 249 35 26 128 33 177 12 21 -9
40 -16 42 -16 2 0 4 26 4 59 l0 59 -44 11 c-61 15 -182 13 -231 -5z"/>
<path d="M1420 5254 c0 -4 40 -66 90 -139 l89 -133 3 -118 3 -119 78 -3 c68
-3 77 -1 78 15 0 10 0 61 -1 114 l-1 96 88 134 c49 74 92 140 97 147 5 9 -10
12 -67 12 l-75 0 -47 -76 c-26 -41 -51 -72 -54 -67 -4 4 -29 38 -55 76 l-47
67 -90 0 c-49 0 -89 -3 -89 -6z"/>
<path d="M2055 5247 c-3 -7 -4 -123 -3 -257 l3 -245 180 0 c152 1 186 4 217
19 49 24 71 60 72 118 1 58 -24 95 -81 122 l-40 19 41 32 c36 27 41 36 44 77
4 59 -29 101 -92 117 -65 16 -335 15 -341 -2z m269 -68 c20 -16 26 -29 26 -60
0 -56 -26 -79 -90 -79 l-50 0 0 73 c0 41 3 77 7 80 14 15 81 6 107 -14z m23
-233 c25 -30 29 -62 12 -100 -15 -31 -55 -48 -105 -44 l-39 3 -3 74 c-4 102
-2 105 60 99 40 -4 57 -11 75 -32z"/>
<path d="M2250 5115 c0 -38 3 -45 19 -45 11 0 27 7 35 16 31 31 13 74 -31 74
-21 0 -23 -5 -23 -45z"/>
<path d="M2250 4896 l0 -56 35 0 c29 0 37 5 45 25 12 31 -6 75 -31 75 -9 0
-24 3 -33 6 -13 5 -16 -3 -16 -50z"/>
<path d="M2632 5003 l3 -258 180 0 180 0 3 42 3 42 -103 3 -103 3 -3 63 -3 62
96 0 95 0 0 45 0 45 -95 0 -96 0 3 58 3 57 98 3 97 3 0 44 0 45 -180 0 -180 0
2 -257z"/>
<path d="M3098 5239 c-2 -13 -2 -131 0 -262 l3 -238 77 3 77 3 3 113 3 112 31
0 c42 0 87 -50 123 -137 16 -37 33 -74 38 -80 13 -18 147 -18 147 0 0 7 -21
55 -47 107 -38 76 -55 98 -82 112 l-33 17 41 20 c98 50 93 178 -8 225 -39 17
-71 21 -208 24 l-161 4 -4 -23z m279 -74 c48 -55 12 -123 -69 -132 l-46 -5 -4
82 c-2 45 -1 84 2 87 3 3 25 3 50 0 32 -4 51 -13 67 -32z"/>
<path d="M3290 5110 c0 -53 4 -57 45 -38 45 20 29 88 -22 88 -21 0 -23 -4 -23
-50z"/>
<path d="M3702 5003 l3 -258 78 -3 77 -3 0 106 0 106 113 -3 112 -3 5 -100 5
-100 75 0 75 0 0 255 0 255 -77 3 -78 3 0 -101 0 -100 -115 0 -114 0 -3 98 -3
97 -78 3 -77 3 2 -258z"/>
<path d="M4370 5098 c0 -183 8 -223 52 -274 50 -57 100 -77 203 -82 155 -7
245 45 280 160 11 37 15 96 15 205 l0 153 -80 0 -80 0 0 -141 c0 -172 -11
-224 -54 -251 -43 -27 -109 -19 -145 16 -26 26 -26 29 -31 199 l-5 172 -77 3
-78 3 0 -163z"/>
<path d="M5040 4999 l0 -261 183 4 c192 4 218 10 261 57 10 11 21 41 24 67 7
62 -16 104 -75 136 l-45 25 36 21 c92 55 60 175 -54 201 -25 6 -109 11 -187
11 l-143 0 0 -261z m259 186 c46 -24 55 -74 20 -119 -17 -22 -28 -26 -70 -26
l-49 0 0 80 0 80 35 0 c20 0 49 -7 64 -15z m10 -220 c33 -16 51 -59 44 -99 -8
-41 -48 -66 -104 -66 l-49 0 0 90 0 90 40 0 c23 0 54 -7 69 -15z"/>
<path d="M5230 5116 c0 -38 3 -46 18 -46 32 0 54 24 50 55 -3 26 -8 30 -35 33
-33 3 -33 3 -33 -42z"/>
<path d="M5236 4943 c-3 -3 -6 -28 -6 -55 0 -48 0 -48 33 -48 18 0 38 5 45 12
16 16 15 63 0 75 -18 14 -64 24 -72 16z"/>
<path d="M1079 4417 c-45 -13 -102 -47 -127 -77 -7 -8 -24 -38 -38 -67 -40
-84 -32 -192 21 -263 73 -100 235 -136 367 -83 37 15 38 16 38 69 l0 54 -36
-15 c-46 -19 -136 -19 -172 -1 -52 27 -75 62 -80 119 -7 86 28 136 109 158 41
11 54 10 108 -8 l61 -20 0 58 c0 55 -1 57 -32 69 -51 18 -167 22 -219 7z"/>
<path d="M1420 4414 c0 -6 115 -174 156 -230 21 -27 24 -43 26 -150 l3 -119
78 -3 77 -3 0 114 c0 96 3 118 18 138 11 13 53 77 95 142 l76 117 -74 0 -74 0
-46 -71 c-25 -38 -49 -68 -53 -65 -4 2 -28 34 -52 70 l-45 66 -92 0 c-51 0
-93 -3 -93 -6z"/>
<path d="M2050 4165 l0 -255 173 0 c194 0 231 7 272 50 25 26 29 39 29 83 0
64 -28 110 -79 128 -32 12 -47 29 -26 29 5 0 23 13 40 29 55 52 36 137 -39
176 -22 12 -69 15 -200 15 l-170 0 0 -255z m280 175 c13 -13 20 -33 20 -59 0
-52 -34 -81 -96 -81 l-44 0 0 80 0 80 50 0 c37 0 55 -5 70 -20z m10 -218 c13
-10 23 -33 27 -59 5 -35 2 -45 -19 -66 -23 -23 -109 -44 -129 -31 -5 3 -9 43
-9 90 l0 84 54 0 c36 0 61 -6 76 -18z"/>
<path d="M2250 4279 c0 -48 1 -50 23 -43 32 9 47 24 47 45 0 23 -26 49 -51 49
-16 0 -19 -7 -19 -51z"/>
<path d="M2250 4055 c0 -52 1 -55 25 -55 28 0 65 32 65 55 0 23 -37 55 -65 55
-24 0 -25 -3 -25 -55z"/>
<path d="M2630 4165 l0 -255 185 0 185 0 0 45 0 45 -105 0 -105 0 0 60 0 59
93 3 92 3 3 42 3 42 -93 3 -93 3 -3 58 -3 57 101 0 100 0 0 45 0 45 -180 0
-180 0 0 -255z"/>
<path d="M3100 4165 l0 -256 78 3 77 3 1 110 c2 121 7 129 64 105 34 -14 66
-61 105 -152 l28 -68 79 0 78 0 -25 53 c-69 141 -85 164 -125 179 l-25 10 35
18 c50 25 71 53 76 97 6 50 -20 101 -66 128 -31 18 -56 20 -207 23 l-173 4 0
-257z m267 180 c30 -21 38 -66 18 -104 -14 -29 -33 -38 -80 -42 -44 -3 -45 -2
-45 81 l0 80 43 0 c23 0 52 -7 64 -15z"/>
<path d="M3290 4280 c0 -53 10 -61 51 -40 42 23 16 90 -35 90 -12 0 -16 -11
-16 -50z"/>
<path d="M3700 4165 l0 -255 80 0 80 0 0 100 0 100 73 2 c39 0 90 1 112 1 l40
0 3 -102 3 -101 79 0 80 0 0 255 0 255 -80 0 -79 0 -3 -97 -3 -98 -112 -1
-113 0 0 98 0 98 -80 0 -80 0 0 -255z"/>
<path d="M4372 4242 c3 -178 3 -179 33 -228 53 -87 183 -130 312 -104 73 15
111 34 145 74 46 52 58 112 58 283 l0 153 -80 0 -80 0 0 -143 c0 -213 -20
-257 -117 -257 -57 0 -85 18 -103 66 -6 14 -10 95 -10 180 l0 154 -81 0 -81 0
4 -178z"/>
<path d="M5040 4164 l0 -256 188 4 c156 2 192 6 219 21 41 22 63 64 63 121 0
53 -33 98 -85 118 -39 14 -44 24 -15 33 29 9 70 63 70 93 0 40 -36 91 -75 108
-25 10 -78 14 -200 14 l-165 0 0 -256z m275 171 c55 -54 12 -135 -71 -135
l-44 0 0 80 0 80 45 0 c35 0 52 -6 70 -25z m12 -217 c26 -30 34 -63 22 -97
-12 -35 -42 -51 -99 -54 l-45 -2 -3 88 -3 87 54 0 c43 0 58 -4 74 -22z"/>
<path d="M5230 4287 c0 -53 4 -57 38 -48 51 14 38 91 -14 91 -22 0 -24 -4 -24
-43z"/>
<path d="M5230 4055 c0 -52 1 -55 26 -55 41 0 64 18 64 50 0 37 -23 60 -61 60
-29 0 -29 -1 -29 -55z"/>
<path d="M2230 3440 l0 -60 34 0 c25 0 39 7 50 22 34 48 7 98 -52 98 l-32 0 0
-60z"/>
<path d="M2230 3210 c0 -79 7 -84 75 -56 32 14 35 19 35 55 0 50 -20 71 -71
71 l-39 0 0 -70z"/>
<path d="M3270 3435 c0 -71 4 -74 57 -54 33 12 43 26 43 61 0 36 -25 58 -66
58 l-34 0 0 -65z"/>
<path d="M5210 3440 l0 -60 31 0 c42 0 65 15 73 46 11 43 -16 74 -64 74 l-40
0 0 -60z"/>
<path d="M5212 3213 c3 -73 11 -82 63 -69 36 9 55 34 55 70 0 44 -26 66 -79
66 l-42 0 3 -67z"/>
<path d="M1080 2746 c-61 -17 -79 -28 -121 -73 -103 -109 -90 -303 26 -383 87
-60 216 -74 315 -34 40 16 40 17 40 70 l0 53 -41 -14 c-83 -30 -170 -14 -218
39 -19 20 -26 40 -28 84 -5 68 17 111 69 138 41 21 121 22 171 1 l37 -16 0 59
c0 56 -1 58 -32 70 -50 18 -167 21 -218 6z"/>
<path d="M1420 2744 c0 -3 40 -64 89 -134 l89 -129 3 -103 c4 -147 -1 -138 85
-138 l74 0 0 107 c0 120 -2 117 117 292 35 52 66 98 69 102 3 5 -29 9 -70 9
l-76 0 -45 -70 c-25 -38 -48 -70 -52 -70 -5 0 -28 32 -52 70 l-44 70 -93 0
c-52 0 -94 -3 -94 -6z"/>
<path d="M2050 2495 l0 -256 194 3 c178 3 197 5 223 24 42 31 66 86 58 134 -7
43 -54 97 -92 106 -31 8 -29 20 7 39 62 32 69 104 16 163 l-34 37 -186 3 -186
4 0 -257z m278 175 c58 -54 11 -144 -72 -138 l-41 3 -3 78 -3 77 49 0 c35 0
54 -6 70 -20z m17 -226 c26 -24 31 -56 15 -98 -11 -31 -35 -44 -86 -47 -66 -3
-64 -6 -64 85 l0 85 28 3 c47 5 81 -3 107 -28z"/>
<path d="M2250 2609 c0 -48 1 -50 23 -43 32 9 47 24 47 45 0 23 -26 49 -51 49
-16 0 -19 -7 -19 -51z"/>
<path d="M2250 2385 c0 -52 1 -55 25 -55 35 0 68 35 60 63 -9 29 -33 47 -62
47 -21 0 -23 -4 -23 -55z"/>
<path d="M2630 2495 l0 -255 185 0 185 0 0 45 0 45 -105 0 -105 0 0 60 0 59
93 3 92 3 3 43 3 42 -95 0 -96 0 0 60 0 60 100 0 100 0 0 45 0 45 -180 0 -180
0 0 -255z"/>
<path d="M3100 2495 l0 -256 78 3 77 3 1 108 c1 59 4 110 8 114 4 4 26 1 49
-7 40 -14 45 -21 92 -117 l50 -103 73 0 c40 0 72 4 72 10 0 10 -69 153 -90
187 -8 13 -28 28 -45 34 l-30 11 30 13 c102 44 111 174 15 230 -31 18 -56 20
-207 23 l-173 4 0 -257z m267 180 c41 -29 38 -111 -5 -134 -11 -6 -38 -13 -61
-17 l-41 -7 0 87 0 86 43 0 c23 0 52 -7 64 -15z"/>
<path d="M3290 2610 c0 -53 10 -61 51 -40 42 23 16 90 -35 90 -12 0 -16 -11
-16 -50z"/>
<path d="M3700 2495 l0 -255 80 0 79 0 3 103 c2 56 6 101 11 100 4 -2 54 -3
112 -3 l105 0 0 -100 0 -100 80 0 80 0 0 255 0 255 -80 0 -79 0 -3 -97 -3 -97
-90 -3 c-141 -6 -135 -10 -135 102 l0 95 -80 0 -80 0 0 -255z"/>
<path d="M4372 2573 c3 -160 5 -182 25 -219 44 -82 122 -118 253 -118 70 0 95
5 141 26 105 48 129 111 129 335 l0 153 -80 0 -80 0 -1 -147 c0 -91 -5 -161
-13 -182 -23 -65 -87 -89 -160 -61 -46 17 -56 60 -56 235 l0 155 -81 0 -81 0
4 -177z"/>
<path d="M5040 2495 l0 -255 175 0 c201 0 241 9 276 67 17 27 20 45 17 84 -6
57 -33 92 -85 111 -38 14 -42 24 -13 33 30 9 70 63 70 94 0 41 -40 94 -80 108
-21 7 -99 12 -197 12 l-163 1 0 -255z m279 169 c48 -62 8 -134 -74 -134 l-45
0 0 80 0 80 49 0 c42 0 53 -4 70 -26z m10 -218 c38 -35 31 -113 -12 -134 -12
-6 -42 -12 -67 -14 l-45 -3 -3 87 c-2 76 -1 87 15 90 30 6 92 -8 112 -26z"/>
<path d="M5230 2617 c0 -53 4 -57 38 -48 51 14 38 91 -14 91 -22 0 -24 -4 -24
-43z"/>
<path d="M5230 2385 c0 -54 0 -55 29 -55 16 0 37 7 45 16 36 35 6 94 -47 94
-26 0 -27 -2 -27 -55z"/>
<path d="M1056 1904 c-128 -47 -195 -189 -155 -331 18 -65 87 -134 158 -158
66 -22 199 -17 249 8 30 16 32 21 32 67 0 28 -1 50 -2 50 -2 0 -25 -7 -52 -15
-65 -20 -102 -19 -153 5 -55 25 -83 70 -83 134 0 115 110 176 235 131 22 -8
41 -15 43 -15 1 0 2 26 2 59 l0 59 -44 11 c-61 15 -183 13 -230 -5z"/>
<path d="M1423 1906 c7 -18 132 -201 156 -230 12 -14 17 -49 21 -145 l5 -126
78 -3 77 -3 0 114 0 114 88 134 c48 74 91 140 96 147 5 9 -10 12 -67 12 l-75
0 -47 -76 c-32 -51 -51 -72 -57 -66 -6 6 -29 39 -52 74 l-41 63 -94 3 c-80 2
-93 1 -88 -12z"/>
<path d="M2055 1908 c-3 -7 -4 -124 -3 -258 l3 -245 175 0 c118 0 187 5 212
13 52 18 81 63 82 123 1 59 -23 96 -85 126 -38 18 -41 22 -24 29 11 4 32 18
48 32 21 20 27 35 27 67 0 48 -19 79 -63 102 -43 24 -364 33 -372 11z m269
-69 c28 -22 36 -73 16 -109 -12 -23 -67 -40 -104 -33 -25 5 -26 8 -26 77 0 40
3 76 7 79 14 15 81 6 107 -14z m23 -233 c56 -65 6 -150 -86 -144 l-46 3 -3 74
c-4 102 -2 105 60 99 40 -4 57 -11 75 -32z"/>
<path d="M2248 1775 c3 -36 8 -45 22 -45 23 0 50 26 50 49 0 24 -20 41 -50 41
-24 0 -25 -2 -22 -45z"/>
<path d="M2252 1553 c3 -58 3 -58 33 -55 34 4 40 9 49 38 8 27 -19 60 -57 68
l-28 7 3 -58z"/>
<path d="M2635 1908 c-3 -7 -4 -124 -3 -258 l3 -245 180 0 180 0 3 43 3 42
-105 0 -106 0 0 65 0 65 95 0 95 0 0 45 0 45 -95 0 -95 0 0 60 0 60 100 0 100
0 0 44 0 44 -175 2 c-136 0 -176 -2 -180 -12z"/>
<path d="M3100 1661 l0 -262 78 3 c52 2 77 7 78 16 1 6 2 59 3 117 l1 105 28
-6 c58 -13 95 -60 152 -194 15 -35 15 -35 88 -38 53 -2 72 1 72 10 0 7 -22 56
-48 108 -37 76 -54 98 -80 112 l-34 16 37 18 c98 46 99 170 2 225 -39 21 -55
24 -209 27 l-168 4 0 -261z m247 189 c57 -20 69 -86 23 -131 -25 -26 -36 -30
-72 -27 -41 3 -43 4 -42 36 1 17 2 55 3 82 1 48 2 50 30 50 15 0 42 -5 58 -10z"/>
<path d="M3290 1770 c0 -53 4 -57 45 -38 45 20 29 88 -22 88 -21 0 -23 -4 -23
-50z"/>
<path d="M3700 1660 l0 -261 78 3 77 3 3 103 3 102 114 0 115 0 0 -105 0 -106
78 3 77 3 0 255 0 255 -77 3 -78 3 0 -101 0 -100 -115 0 -115 0 0 100 0 100
-80 0 -80 0 0 -260z"/>
<path d="M4370 1762 c0 -185 12 -241 62 -289 55 -52 94 -66 193 -71 115 -5
187 19 238 79 47 54 59 120 55 294 l-3 140 -77 3 -78 3 0 -147 c0 -171 -10
-218 -54 -246 -43 -27 -109 -19 -145 16 -26 26 -26 29 -31 199 l-5 172 -77 3
-78 3 0 -159z"/>
<path d="M5040 1659 l0 -261 183 4 c197 4 224 11 266 64 28 35 28 108 1 149
-10 16 -38 39 -61 50 l-41 22 36 21 c44 26 61 59 52 104 -8 46 -51 85 -106 97
-25 6 -109 11 -187 11 l-143 0 0 -261z m269 175 c37 -31 41 -69 10 -108 -17
-22 -28 -26 -70 -26 l-49 0 0 80 0 80 39 0 c28 0 49 -8 70 -26z m0 -209 c40
-20 55 -66 36 -111 -16 -38 -46 -54 -106 -54 l-39 0 0 90 0 90 40 0 c23 0 54
-7 69 -15z"/>
<path d="M5230 1775 c0 -40 2 -45 23 -45 30 0 47 18 47 51 0 27 -15 39 -51 39
-16 0 -19 -7 -19 -45z"/>
<path d="M5235 1602 c-3 -3 -5 -27 -5 -54 0 -56 14 -67 57 -46 31 14 43 59 23
83 -11 13 -66 26 -75 17z"/>
</g>
</svg>
